# xmcd
#
# Track frame offsets: 
#        150
#        21193
#        45296
#        63461
#        77610
#        100328
#        118105
#        139571
#        172602
#        196494
#        232478
#
# Disc length: 3377 seconds
#
# Revision: 0
# Processed by: cddbd v1.5.2PL0 Copyright (c) Steve Scherf et al.
# Submitted via: ExactAudioCopy v1.3
#
DISCID=8c0d2f0b
DTITLE=Fred Chapellier - The Alternative Electric Communion Live
DYEAR=2014
DGENRE=Blues Rock
TTITLE0=I Can't Lose the Blues (Live)
TTITLE1=My Love Comes Tumbling Down (Live)
TTITLE2=I Loved Another Woman (Live)
TTITLE3=Rollin' Man (Live)
TTITLE4=Something About You (Live)
TTITLE5=He's Walking (Live)
TTITLE6=Cold as Ice (Live)
TTITLE7=Gary's Gone (Live)
TTITLE8=When the Lights Came On (Live)
TTITLE9=A Real Mother for Ya (Live)
TTITLE10=Beer Drinking Woman (Live)
EXTD=
EXTT0=
EXTT1=
EXTT2=
EXTT3=
EXTT4=
EXTT5=
EXTT6=
EXTT7=
EXTT8=
EXTT9=
EXTT10=
PLAYORDER=
